<?xml version="1.0" encoding="UTF-8" standalone="no"?>
<svg width="132px" height="60px" viewBox="0 0 132 60" version="1.1" xmlns="http://www.w3.org/2000/svg" xmlns:xlink="http://www.w3.org/1999/xlink">
    <!-- Generator: Sketch 3.7.1 (28215) - http://www.bohemiancoding.com/sketch -->
    <title>logo</title>
    <desc>Created with Sketch.</desc>
    <defs>
        <linearGradient x1="0%" y1="0%" x2="83.2509305%" y2="131.068152%" id="linearGradient-1">
            <stop stop-color="#41DCFF" stop-opacity="0" offset="0%"></stop>
            <stop stop-color="#41DCFF" offset="100%"></stop>
        </linearGradient>
        <linearGradient x1="10.9828827%" y1="0%" x2="92.8603638%" y2="115.0784%" id="linearGradient-2">
            <stop stop-color="#41DCFF" stop-opacity="0" offset="0%"></stop>
            <stop stop-color="#41DCFF" offset="100%"></stop>
        </linearGradient>
        <linearGradient x1="0%" y1="39.783574%" x2="97.9194389%" y2="0%" id="linearGradient-3">
            <stop stop-color="#41DCFF" stop-opacity="0" offset="0%"></stop>
            <stop stop-color="#41DCFF" offset="100%"></stop>
        </linearGradient>
        <linearGradient x1="0%" y1="84.9169314%" x2="97.9194389%" y2="0%" id="linearGradient-4">
            <stop stop-color="#41DCFF" stop-opacity="-0.00113110652" offset="-0.113110652%"></stop>
            <stop stop-color="#41DCFF" stop-opacity="0" offset="0%"></stop>
            <stop stop-color="#41DCFF" offset="100%"></stop>
        </linearGradient>
        <linearGradient x1="0%" y1="6.29904115%" x2="100%" y2="50%" id="linearGradient-5">
            <stop stop-color="#41DCFF" stop-opacity="0" offset="0%"></stop>
            <stop stop-color="#41DCFF" offset="100%"></stop>
        </linearGradient>
    </defs>
    <g id="Fluttr-Landing" stroke="none" stroke-width="1" fill="none" fill-rule="evenodd">
        <g id="Fluttr-Landing-Desktop" transform="translate(-240.000000, -6.000000)">
            <g id="Nav">
                <g id="logo" transform="translate(240.000000, 6.000000)">
                    <path d="M56.1905788,45.5383366 L56.1905788,36.9227852 L64.743608,36.9227852 L64.743608,32.2411271 L56.1579337,32.2411271 L56.1579337,27.3643999 L65.9188334,27.3643999 L65.9188334,22.4876727 L51,22.4876727 L51,45.5383366 L56.1905788,45.5383366 Z M73.6666156,45.5383366 L73.6666156,22 L68.7045528,22 L68.7045528,45.5383366 L73.6666156,45.5383366 Z M87.9434277,45.5383366 L92.7096195,45.5383366 C92.6769744,45.2782445 92.5463938,44.1078299 92.5463938,42.6448118 L92.5463938,29.3801138 L87.584331,29.3801138 L87.584331,38.5808725 C87.584331,40.2064482 86.5396862,41.3443512 84.8747836,41.3443512 C83.1119455,41.3443512 82.2631716,40.1089136 82.2631716,38.5483609 L82.2631716,29.3801138 L77.3011088,29.3801138 L77.3011088,39.5887294 C77.3011088,43.03495 79.520979,45.8959633 83.4710421,45.8959633 C85.1032996,45.8959633 86.9640732,45.310756 87.8128471,43.9127609 C87.8128471,44.3354105 87.8781374,45.245733 87.9434277,45.5383366 L87.9434277,45.5383366 Z M102.318175,24.6659442 L97.8784348,24.6659442 L97.8784348,26.7466811 C97.8784348,28.2422108 97.8784348,29.380114 95.3647583,29.3801138 L94.5486296,29.3801138 L94.5486296,33.7041453 L97.4214027,33.7041453 L97.4214027,40.6290979 C97.4214027,43.8477378 99.4780472,45.8309402 102.840498,45.8309402 C104.407465,45.8309402 105.223594,45.4733136 105.419464,45.375779 L105.419464,41.2793282 C105.125658,41.3443512 104.635981,41.4418857 104.113658,41.4418857 C103.036368,41.4418857 102.318175,41.0842591 102.318175,39.751287 L102.318175,33.7041453 L105.484755,33.7041453 L105.484755,29.3801138 L102.318175,29.3801138 L102.318175,24.6659442 Z M115.060665,24.6659442 L110.620925,24.6659442 L110.620925,26.7466811 C110.620925,28.2422108 110.620925,29.380114 108.107248,29.3801138 L107.29112,29.3801138 L107.29112,33.7041453 L110.163893,33.7041453 L110.163893,40.6290979 C110.163893,43.8477378 112.220537,45.8309402 115.582988,45.8309402 C117.149955,45.8309402 117.966084,45.4733136 118.161954,45.375779 L118.161954,41.2793282 C117.868148,41.3443512 117.378471,41.4418857 116.856148,41.4418857 C115.778859,41.4418857 115.060665,41.0842591 115.060665,39.751287 L115.060665,33.7041453 L118.227245,33.7041453 L118.227245,29.3801138 L115.060665,29.3801138 L115.060665,24.6659442 Z M131.328831,29.3801138 C131.00238,29.2825793 130.512703,29.2175562 130.023025,29.2175562 C128.717219,29.2175562 126.660575,29.7377405 125.811801,31.5583853 L125.811801,29.3801138 L121.012964,29.3801138 L121.012964,45.5383366 L125.975027,45.5383366 L125.975027,38.4833379 C125.975027,35.264698 127.77051,34.0942834 129.761864,34.0942834 C130.251542,34.0942834 130.773864,34.126795 131.328831,34.256841 L131.328831,29.3801138 Z" id="Fluttr" fill="#FFFFFF"></path>
                    <g id="Group-15">
                        <path d="M38.4125837,29.148727 C32.0609645,23.13701 24.617359,18.2573629 16.4091596,14.8378634 C12.9695041,13.4030305 9.39563801,12.2253942 5.71094649,11.3272313 C5.49844635,12.5848619 5.38762091,13.8769203 5.38762091,15.1942934 C5.38762091,25.6117677 12.298451,34.4212571 21.803003,37.3243382 C23.9605403,37.983531 26.2512716,38.3379358 28.6253761,38.3379358 C33.9277122,38.3379358 38.8162323,36.5699624 42.7266417,33.5929625 C41.3530163,32.0507956 39.9133024,30.5683712 38.4125837,29.148727" id="Fill-3" fill="url(#linearGradient-1)"></path>
                        <path d="M40.1989982,27.9473152 C36.295096,20.1346145 30.9761869,13.0138131 24.4372829,7.00462751 C21.6978611,4.48470852 18.7439058,2.16082598 15.5898546,0.0617373065 C14.9582513,1.17112542 14.4104279,2.34754665 13.9580771,3.5854318 C10.3804491,13.3746984 13.8489802,24.0068407 21.7833696,29.9722827 C23.5844354,31.3266151 25.6152861,32.4399523 27.8462326,33.2486026 C32.8288018,35.0546492 38.0296666,35.058497 42.7266315,33.5929828 C41.9654946,31.6759569 41.1216962,29.7925488 40.1989982,27.9473152" id="Fill-5" fill="url(#linearGradient-2)"></path>
                        <path d="M10.4611788,36.0730869 C6.90022542,37.175792 3.40231034,38.5615145 -3.05024132e-05,40.2322798 C0.648959176,41.3317445 1.39799677,42.3924273 2.2482007,43.4015695 C8.972051,51.381853 19.951903,53.7062419 29.1064906,49.8457616 C31.1848234,48.9695718 33.1682936,47.7746203 34.9869492,46.2548315 C39.0487522,42.8605453 41.6525399,38.376819 42.7266315,33.5929625 C40.6790045,33.2909084 38.6192782,33.0769492 36.5534515,32.9501736 C27.8076979,32.4109721 18.9561009,33.438037 10.4611788,36.0730869 Z" id="Fill-8" fill="url(#linearGradient-3)"></path>
                        <path d="M42.7244658,33.5921626 C40.6965637,34.0058036 38.6875731,34.5063243 36.7027811,35.0908896 C28.2992646,37.5631159 20.3341694,41.5432837 13.2564911,46.9129206 C10.289013,49.1621756 7.4780123,51.6557674 4.85470308,54.3845827 C5.84196453,55.1966758 6.91015904,55.9382931 8.055728,56.5969796 C17.1146397,61.8057168 28.2306342,60.2500825 35.5073915,53.50414 C37.1594022,51.9728078 38.6129439,50.1743556 39.7999961,48.1267062 C42.4511642,43.5535686 43.358001,38.4532793 42.7244658,33.5921626" id="Fill-11" fill="url(#linearGradient-4)"></path>
                        <path d="M37.14652,30.8862115 C29.1134045,27.4004889 20.4427885,25.3506119 11.5553004,24.9332244 C7.83034567,24.7565283 4.06756798,24.8672038 0.296656304,25.2783133 C0.528881343,26.5325011 0.868474877,27.7843599 1.32092734,29.0223463 C4.89855539,38.8115116 14.4179519,44.7357414 24.346284,44.2263099 C26.6001073,44.1108752 28.8744689,43.6636164 31.1053138,42.854966 C36.087883,41.0489194 40.0744467,37.7223752 42.7266315,33.5929524 C40.9062475,32.6116563 39.0442785,31.709038 37.14652,30.8862115" id="Fill-13" fill="url(#linearGradient-5)"></path>
                    </g>
                </g>
            </g>
        </g>
    </g>
</svg>